# xmcd
#
# Track frame offsets: 
#        150
#        62607
#        109200
#        152147
#        214084
#        255932
#
# Disc length: 3470 seconds
#
# Revision: 11
# Processed by: cddbd v1.5.2PL0 Copyright (c) Steve Scherf et al.
# Submitted via: ExactAudioCopyFreeDBPlugin 1.0
#
DISCID=4a0d8c06
DTITLE=Dream Theater - Six Degrees Of Inner Turbulence, Disc 1
DYEAR=2002
DGENRE=Progressive Metal
TTITLE0=The Glass Prison
TTITLE1=Blind Faith
TTITLE2=Misunderstood
TTITLE3=The Great Debate
TTITLE4=Disappear
TTITLE5=DATA
EXTD=YEAR: 2002
EXTT0=
EXTT1=
EXTT2=
EXTT3=
EXTT4=
EXTT5=
PLAYORDER=
